<svg width="417" height="100" viewBox="0 0 417 100" fill="none" xmlns="http://www.w3.org/2000/svg">
<g id="Group 1">
<path id="Moderna, minimalista y visualmente atractiva.&#226;&#128;&#139;" d="M121.891 67.355H123.06L126.315 73.69H126.217L129.472 67.355H130.62V76H129.794V68.104H129.962L126.546 74.838H125.993L122.591 68.153H122.703V76H121.891V67.355ZM135.863 76.154C135.27 76.154 134.747 76.021 134.295 75.755C133.842 75.489 133.485 75.097 133.224 74.579C132.967 74.061 132.839 73.4263 132.839 72.675C132.839 71.9237 132.967 71.2913 133.224 70.778C133.485 70.26 133.842 69.868 134.295 69.602C134.747 69.336 135.27 69.203 135.863 69.203C136.455 69.203 136.978 69.336 137.431 69.602C137.883 69.868 138.238 70.26 138.495 70.778C138.751 71.2913 138.88 71.9237 138.88 72.675C138.88 73.4263 138.751 74.061 138.495 74.579C138.238 75.097 137.883 75.489 137.431 75.755C136.978 76.021 136.455 76.154 135.863 76.154ZM135.849 75.447C136.339 75.447 136.747 75.3327 137.074 75.104C137.4 74.8707 137.643 74.5463 137.802 74.131C137.965 73.7157 138.047 73.2303 138.047 72.675C138.047 71.8397 137.867 71.1677 137.508 70.659C137.153 70.1503 136.609 69.896 135.877 69.896C135.387 69.896 134.978 70.0127 134.652 70.246C134.33 70.4747 134.087 70.799 133.924 71.219C133.765 71.6343 133.686 72.1197 133.686 72.675C133.686 73.5057 133.863 74.1753 134.218 74.684C134.577 75.1927 135.121 75.447 135.849 75.447ZM143.411 76.154C142.883 76.154 142.396 76.0117 141.948 75.727C141.504 75.4377 141.15 75.0317 140.884 74.509C140.618 73.9863 140.485 73.368 140.485 72.654C140.485 71.94 140.615 71.3263 140.877 70.813C141.143 70.295 141.493 69.8983 141.927 69.623C142.365 69.343 142.844 69.203 143.362 69.203C143.842 69.203 144.269 69.322 144.643 69.56C145.016 69.7933 145.308 70.1293 145.518 70.568C145.728 71.002 145.833 71.5247 145.833 72.136H145.462C145.462 71.646 145.366 71.2377 145.175 70.911C144.988 70.5797 144.743 70.33 144.44 70.162C144.136 69.994 143.812 69.91 143.467 69.91C143.089 69.91 142.736 70.0197 142.41 70.239C142.088 70.4583 141.826 70.771 141.626 71.177C141.43 71.583 141.332 72.0753 141.332 72.654C141.332 73.2373 141.43 73.7367 141.626 74.152C141.822 74.5673 142.083 74.8847 142.41 75.104C142.736 75.3233 143.091 75.433 143.474 75.433C143.8 75.433 144.115 75.349 144.419 75.181C144.722 75.013 144.972 74.7657 145.168 74.439C145.364 74.1077 145.462 73.7017 145.462 73.221H145.833C145.833 73.837 145.725 74.3643 145.511 74.803C145.301 75.2417 145.011 75.5777 144.643 75.811C144.279 76.0397 143.868 76.154 143.411 76.154ZM145.581 76L145.462 74.488V66.48H146.267V76H145.581ZM151.44 76.154C150.861 76.154 150.35 76.007 149.907 75.713C149.468 75.4143 149.123 75.006 148.871 74.488C148.619 73.9653 148.493 73.3703 148.493 72.703C148.493 71.975 148.617 71.3497 148.864 70.827C149.116 70.3043 149.461 69.903 149.9 69.623C150.343 69.343 150.857 69.203 151.44 69.203C151.93 69.203 152.345 69.3033 152.686 69.504C153.031 69.7 153.309 69.9683 153.519 70.309C153.729 70.6497 153.876 71.0347 153.96 71.464C154.049 71.8933 154.084 72.3367 154.065 72.794H149.158V72.234H153.568L153.246 72.444C153.26 72.1407 153.241 71.8397 153.19 71.541C153.143 71.2377 153.052 70.96 152.917 70.708C152.786 70.456 152.602 70.253 152.364 70.099C152.126 69.945 151.82 69.868 151.447 69.868C150.971 69.868 150.574 69.9917 150.257 70.239C149.94 70.4817 149.702 70.799 149.543 71.191C149.389 71.5783 149.312 71.9937 149.312 72.437V72.78C149.312 73.2887 149.389 73.746 149.543 74.152C149.702 74.558 149.937 74.88 150.25 75.118C150.567 75.356 150.964 75.475 151.44 75.475C151.93 75.475 152.329 75.356 152.637 75.118C152.95 74.8753 153.136 74.5207 153.197 74.054H154.065C153.995 74.4973 153.839 74.8753 153.596 75.188C153.358 75.5007 153.055 75.741 152.686 75.909C152.317 76.0723 151.902 76.154 151.44 76.154ZM156.289 76V69.35H157.101V76H156.289ZM156.8 72.955C156.8 72.1243 156.873 71.4337 157.017 70.883C157.162 70.3323 157.386 69.9193 157.689 69.644C157.993 69.3687 158.38 69.231 158.851 69.231C159.015 69.231 159.164 69.2427 159.299 69.266C159.439 69.2893 159.579 69.3267 159.719 69.378L159.628 70.169C159.493 70.1177 159.344 70.0757 159.18 70.043C159.017 70.0057 158.875 69.987 158.753 69.987C158.338 69.987 158.009 70.113 157.766 70.365C157.528 70.617 157.358 70.967 157.255 71.415C157.153 71.8583 157.101 72.3717 157.101 72.955H156.8ZM165.938 76V72.087C165.938 71.3823 165.768 70.8433 165.427 70.47C165.091 70.0967 164.627 69.91 164.034 69.91C163.6 69.91 163.225 70.029 162.907 70.267C162.595 70.505 162.354 70.8387 162.186 71.268C162.023 71.6973 161.941 72.199 161.941 72.773H161.584C161.584 72.045 161.682 71.415 161.878 70.883C162.079 70.3463 162.373 69.9333 162.76 69.644C163.152 69.35 163.638 69.203 164.216 69.203C164.73 69.203 165.173 69.3173 165.546 69.546C165.924 69.7747 166.216 70.106 166.421 70.54C166.627 70.9693 166.729 71.485 166.729 72.087V76H165.938ZM161.129 76V69.357H161.815L161.941 70.995V76H161.129ZM173.495 76L173.39 74.621V71.681C173.39 71.0137 173.245 70.54 172.956 70.26C172.666 69.98 172.253 69.84 171.717 69.84C171.418 69.84 171.14 69.8843 170.884 69.973C170.627 70.057 170.422 70.1947 170.268 70.386C170.114 70.5727 170.037 70.82 170.037 71.128H169.113C169.113 70.6567 169.229 70.281 169.463 70.001C169.696 69.7163 170.009 69.5133 170.401 69.392C170.797 69.266 171.236 69.203 171.717 69.203C172.193 69.203 172.617 69.287 172.991 69.455C173.364 69.6183 173.658 69.8843 173.873 70.253C174.092 70.617 174.202 71.0977 174.202 71.695V76H173.495ZM171.185 76.154C170.653 76.154 170.214 76.0583 169.869 75.867C169.523 75.671 169.267 75.4213 169.099 75.118C168.931 74.8147 168.847 74.502 168.847 74.18C168.847 73.7133 168.959 73.34 169.183 73.06C169.411 72.78 169.715 72.577 170.093 72.451C170.475 72.325 170.893 72.262 171.346 72.262C171.686 72.262 172.039 72.3017 172.403 72.381C172.771 72.4557 173.124 72.5607 173.46 72.696V73.242C173.17 73.116 172.837 73.0157 172.459 72.941C172.081 72.8663 171.738 72.829 171.43 72.829C170.954 72.829 170.548 72.9317 170.212 73.137C169.876 73.3423 169.708 73.69 169.708 74.18C169.708 74.5487 169.831 74.8613 170.079 75.118C170.331 75.3747 170.734 75.503 171.29 75.503C171.668 75.503 172.015 75.412 172.333 75.23C172.65 75.048 172.904 74.8217 173.096 74.551C173.292 74.2803 173.39 74.0073 173.39 73.732H173.593C173.593 74.1567 173.492 74.5533 173.292 74.922C173.096 75.2907 172.816 75.5893 172.452 75.818C172.092 76.042 171.67 76.154 171.185 76.154ZM176.529 77.337L175.899 77.036C176.141 76.9147 176.342 76.7793 176.501 76.63C176.659 76.4853 176.762 76.2987 176.809 76.07C176.636 76.0607 176.489 76.007 176.368 75.909C176.246 75.8063 176.186 75.671 176.186 75.503C176.186 75.349 176.242 75.216 176.354 75.104C176.466 74.9873 176.613 74.929 176.795 74.929C177.019 74.929 177.205 75.013 177.355 75.181C177.504 75.349 177.579 75.5543 177.579 75.797C177.579 76.0817 177.492 76.364 177.32 76.644C177.152 76.924 176.888 77.155 176.529 77.337ZM192.23 76V72.087C192.23 71.3823 192.062 70.8433 191.726 70.47C191.39 70.0967 190.93 69.91 190.347 69.91C189.684 69.91 189.182 70.162 188.842 70.666C188.501 71.1653 188.331 71.8327 188.331 72.668H187.918C187.918 72.122 187.974 71.6343 188.086 71.205C188.198 70.771 188.363 70.407 188.583 70.113C188.802 69.8143 189.073 69.588 189.395 69.434C189.721 69.28 190.097 69.203 190.522 69.203C191.035 69.203 191.478 69.3173 191.852 69.546C192.23 69.7747 192.521 70.106 192.727 70.54C192.932 70.9693 193.035 71.485 193.035 72.087V76H192.23ZM182.731 76V69.357H183.417L183.515 70.792C183.715 70.2927 184.009 69.903 184.397 69.623C184.784 69.343 185.258 69.203 185.818 69.203C186.331 69.203 186.774 69.3173 187.148 69.546C187.526 69.7747 187.817 70.106 188.023 70.54C188.228 70.9693 188.331 71.485 188.331 72.087V76H187.54V72.087C187.54 71.3823 187.369 70.8433 187.029 70.47C186.693 70.0967 186.228 69.91 185.636 69.91C185.202 69.91 184.826 70.029 184.509 70.267C184.196 70.505 183.956 70.8387 183.788 71.268C183.624 71.6973 183.543 72.199 183.543 72.773V76H182.731ZM196.174 67.607C196.001 67.607 195.861 67.5533 195.754 67.446C195.646 67.3387 195.593 67.2033 195.593 67.04C195.593 66.8813 195.646 66.7553 195.754 66.662C195.861 66.564 196.001 66.515 196.174 66.515C196.356 66.515 196.498 66.564 196.601 66.662C196.703 66.7553 196.755 66.8813 196.755 67.04C196.755 67.2033 196.703 67.3387 196.601 67.446C196.498 67.5533 196.356 67.607 196.174 67.607ZM195.768 76V69.35H196.58V76H195.768ZM204.507 76V72.087C204.507 71.3823 204.336 70.8433 203.996 70.47C203.66 70.0967 203.195 69.91 202.603 69.91C202.169 69.91 201.793 70.029 201.476 70.267C201.163 70.505 200.923 70.8387 200.755 71.268C200.591 71.6973 200.51 72.199 200.51 72.773H200.153C200.153 72.045 200.251 71.415 200.447 70.883C200.647 70.3463 200.941 69.9333 201.329 69.644C201.721 69.35 202.206 69.203 202.785 69.203C203.298 69.203 203.741 69.3173 204.115 69.546C204.493 69.7747 204.784 70.106 204.99 70.54C205.195 70.9693 205.298 71.485 205.298 72.087V76H204.507ZM199.698 76V69.357H200.384L200.51 70.995V76H199.698ZM208.451 67.607C208.278 67.607 208.138 67.5533 208.031 67.446C207.924 67.3387 207.87 67.2033 207.87 67.04C207.87 66.8813 207.924 66.7553 208.031 66.662C208.138 66.564 208.278 66.515 208.451 66.515C208.633 66.515 208.775 66.564 208.878 66.662C208.981 66.7553 209.032 66.8813 209.032 67.04C209.032 67.2033 208.981 67.3387 208.878 67.446C208.775 67.5533 208.633 67.607 208.451 67.607ZM208.045 76V69.35H208.857V76H208.045ZM221.474 76V72.087C221.474 71.3823 221.306 70.8433 220.97 70.47C220.634 70.0967 220.174 69.91 219.591 69.91C218.928 69.91 218.427 70.162 218.086 70.666C217.745 71.1653 217.575 71.8327 217.575 72.668H217.162C217.162 72.122 217.218 71.6343 217.33 71.205C217.442 70.771 217.608 70.407 217.827 70.113C218.046 69.8143 218.317 69.588 218.639 69.434C218.966 69.28 219.341 69.203 219.766 69.203C220.279 69.203 220.723 69.3173 221.096 69.546C221.474 69.7747 221.766 70.106 221.971 70.54C222.176 70.9693 222.279 71.485 222.279 72.087V76H221.474ZM211.975 76V69.357H212.661L212.759 70.792C212.96 70.2927 213.254 69.903 213.641 69.623C214.028 69.343 214.502 69.203 215.062 69.203C215.575 69.203 216.019 69.3173 216.392 69.546C216.77 69.7747 217.062 70.106 217.267 70.54C217.472 70.9693 217.575 71.485 217.575 72.087V76H216.784V72.087C216.784 71.3823 216.614 70.8433 216.273 70.47C215.937 70.0967 215.473 69.91 214.88 69.91C214.446 69.91 214.07 70.029 213.753 70.267C213.44 70.505 213.2 70.8387 213.032 71.268C212.869 71.6973 212.787 72.199 212.787 72.773V76H211.975ZM229.03 76L228.925 74.621V71.681C228.925 71.0137 228.78 70.54 228.491 70.26C228.202 69.98 227.789 69.84 227.252 69.84C226.953 69.84 226.676 69.8843 226.419 69.973C226.162 70.057 225.957 70.1947 225.803 70.386C225.649 70.5727 225.572 70.82 225.572 71.128H224.648C224.648 70.6567 224.765 70.281 224.998 70.001C225.231 69.7163 225.544 69.5133 225.936 69.392C226.333 69.266 226.771 69.203 227.252 69.203C227.728 69.203 228.153 69.287 228.526 69.455C228.899 69.6183 229.193 69.8843 229.408 70.253C229.627 70.617 229.737 71.0977 229.737 71.695V76H229.03ZM226.72 76.154C226.188 76.154 225.749 76.0583 225.404 75.867C225.059 75.671 224.802 75.4213 224.634 75.118C224.466 74.8147 224.382 74.502 224.382 74.18C224.382 73.7133 224.494 73.34 224.718 73.06C224.947 72.78 225.25 72.577 225.628 72.451C226.011 72.325 226.428 72.262 226.881 72.262C227.222 72.262 227.574 72.3017 227.938 72.381C228.307 72.4557 228.659 72.5607 228.995 72.696V73.242C228.706 73.116 228.372 73.0157 227.994 72.941C227.616 72.8663 227.273 72.829 226.965 72.829C226.489 72.829 226.083 72.9317 225.747 73.137C225.411 73.3423 225.243 73.69 225.243 74.18C225.243 74.5487 225.367 74.8613 225.614 75.118C225.866 75.3747 226.27 75.503 226.825 75.503C227.203 75.503 227.551 75.412 227.868 75.23C228.185 75.048 228.44 74.8217 228.631 74.551C228.827 74.2803 228.925 74.0073 228.925 73.732H229.128C229.128 74.1567 229.028 74.5533 228.827 74.922C228.631 75.2907 228.351 75.5893 227.987 75.818C227.628 76.042 227.205 76.154 226.72 76.154ZM232.442 76V66.48H233.254V76H232.442ZM236.629 67.607C236.456 67.607 236.316 67.5533 236.209 67.446C236.101 67.3387 236.048 67.2033 236.048 67.04C236.048 66.8813 236.101 66.7553 236.209 66.662C236.316 66.564 236.456 66.515 236.629 66.515C236.811 66.515 236.953 66.564 237.056 66.662C237.158 66.7553 237.21 66.8813 237.21 67.04C237.21 67.2033 237.158 67.3387 237.056 67.446C236.953 67.5533 236.811 67.607 236.629 67.607ZM236.223 76V69.35H237.035V76H236.223ZM242.498 76.154C241.854 76.154 241.322 76.0607 240.902 75.874C240.486 75.6873 240.174 75.4353 239.964 75.118C239.754 74.8007 239.639 74.446 239.621 74.054H240.433C240.461 74.5253 240.65 74.8823 241 75.125C241.354 75.363 241.837 75.482 242.449 75.482C242.766 75.482 243.06 75.4307 243.331 75.328C243.601 75.2207 243.818 75.076 243.982 74.894C244.15 74.7073 244.234 74.4973 244.234 74.264C244.234 73.9653 244.124 73.732 243.905 73.564C243.685 73.396 243.338 73.2513 242.862 73.13L241.651 72.766C241.067 72.598 240.622 72.36 240.314 72.052C240.006 71.7393 239.852 71.366 239.852 70.932C239.852 70.4093 240.078 69.9917 240.531 69.679C240.983 69.3617 241.574 69.203 242.302 69.203C243.095 69.203 243.713 69.3593 244.157 69.672C244.6 69.9847 244.833 70.3743 244.857 70.841H244.017C243.965 70.5097 243.795 70.2647 243.506 70.106C243.216 69.9427 242.815 69.861 242.302 69.861C241.793 69.861 241.399 69.9777 241.119 70.211C240.839 70.4443 240.699 70.6987 240.699 70.974C240.699 71.506 241.156 71.8957 242.071 72.143L243.261 72.514C243.858 72.682 244.313 72.906 244.626 73.186C244.943 73.466 245.102 73.8253 245.102 74.264C245.102 74.586 244.997 74.8917 244.787 75.181C244.581 75.4703 244.285 75.706 243.898 75.888C243.51 76.0653 243.044 76.154 242.498 76.154ZM249.433 76.154C249.088 76.154 248.78 76.0863 248.509 75.951C248.243 75.8157 248.033 75.615 247.879 75.349C247.73 75.083 247.655 74.754 247.655 74.362V67.467H248.446V74.348C248.446 75.104 248.796 75.482 249.496 75.482C249.702 75.482 249.898 75.4587 250.084 75.412C250.271 75.3653 250.481 75.3 250.714 75.216L250.826 75.811C250.598 75.9137 250.369 75.9953 250.14 76.056C249.912 76.1213 249.676 76.154 249.433 76.154ZM246.514 69.945V69.357H250.693V69.945H246.514ZM256.674 76L256.569 74.621V71.681C256.569 71.0137 256.425 70.54 256.135 70.26C255.846 69.98 255.433 69.84 254.896 69.84C254.598 69.84 254.32 69.8843 254.063 69.973C253.807 70.057 253.601 70.1947 253.447 70.386C253.293 70.5727 253.216 70.82 253.216 71.128H252.292C252.292 70.6567 252.409 70.281 252.642 70.001C252.876 69.7163 253.188 69.5133 253.58 69.392C253.977 69.266 254.416 69.203 254.896 69.203C255.372 69.203 255.797 69.287 256.17 69.455C256.544 69.6183 256.838 69.8843 257.052 70.253C257.272 70.617 257.381 71.0977 257.381 71.695V76H256.674ZM254.364 76.154C253.832 76.154 253.394 76.0583 253.048 75.867C252.703 75.671 252.446 75.4213 252.278 75.118C252.11 74.8147 252.026 74.502 252.026 74.18C252.026 73.7133 252.138 73.34 252.362 73.06C252.591 72.78 252.894 72.577 253.272 72.451C253.655 72.325 254.073 72.262 254.525 72.262C254.866 72.262 255.218 72.3017 255.582 72.381C255.951 72.4557 256.303 72.5607 256.639 72.696V73.242C256.35 73.116 256.016 73.0157 255.638 72.941C255.26 72.8663 254.917 72.829 254.609 72.829C254.133 72.829 253.727 72.9317 253.391 73.137C253.055 73.3423 252.887 73.69 252.887 74.18C252.887 74.5487 253.011 74.8613 253.258 75.118C253.51 75.3747 253.914 75.503 254.469 75.503C254.847 75.503 255.195 75.412 255.512 75.23C255.83 75.048 256.084 74.8217 256.275 74.551C256.471 74.2803 256.569 74.0073 256.569 73.732H256.772C256.772 74.1567 256.672 74.5533 256.471 74.922C256.275 75.2907 255.995 75.5893 255.631 75.818C255.272 76.042 254.85 76.154 254.364 76.154ZM262.158 69.357H263.047L265.42 75.293H265.189L266.953 69.357H267.793L265.315 77.4C265.133 78.0067 264.876 78.492 264.545 78.856C264.218 79.2247 263.784 79.409 263.243 79.409C262.963 79.409 262.702 79.3647 262.459 79.276C262.216 79.1873 261.964 79.0613 261.703 78.898V78.114C261.946 78.324 262.181 78.4733 262.41 78.562C262.639 78.6553 262.879 78.702 263.131 78.702C263.444 78.702 263.698 78.5993 263.894 78.394C264.095 78.1887 264.258 77.9297 264.384 77.617C264.515 77.3043 264.627 76.9917 264.72 76.679L264.909 76L262.158 69.357ZM271.584 69.357H272.501L274.839 75.3H274.671L277.009 69.357H277.926L275.182 76H274.328L271.584 69.357ZM280.119 67.607C279.946 67.607 279.806 67.5533 279.699 67.446C279.592 67.3387 279.538 67.2033 279.538 67.04C279.538 66.8813 279.592 66.7553 279.699 66.662C279.806 66.564 279.946 66.515 280.119 66.515C280.301 66.515 280.443 66.564 280.546 66.662C280.649 66.7553 280.7 66.8813 280.7 67.04C280.7 67.2033 280.649 67.3387 280.546 67.446C280.443 67.5533 280.301 67.607 280.119 67.607ZM279.713 76V69.35H280.525V76H279.713ZM285.988 76.154C285.344 76.154 284.812 76.0607 284.392 75.874C283.977 75.6873 283.664 75.4353 283.454 75.118C283.244 74.8007 283.13 74.446 283.111 74.054H283.923C283.951 74.5253 284.14 74.8823 284.49 75.125C284.845 75.363 285.328 75.482 285.939 75.482C286.256 75.482 286.55 75.4307 286.821 75.328C287.092 75.2207 287.309 75.076 287.472 74.894C287.64 74.7073 287.724 74.4973 287.724 74.264C287.724 73.9653 287.614 73.732 287.395 73.564C287.176 73.396 286.828 73.2513 286.352 73.13L285.141 72.766C284.558 72.598 284.112 72.36 283.804 72.052C283.496 71.7393 283.342 71.366 283.342 70.932C283.342 70.4093 283.568 69.9917 284.021 69.679C284.474 69.3617 285.064 69.203 285.792 69.203C286.585 69.203 287.204 69.3593 287.647 69.672C288.09 69.9847 288.324 70.3743 288.347 70.841H287.507C287.456 70.5097 287.285 70.2647 286.996 70.106C286.707 69.9427 286.305 69.861 285.792 69.861C285.283 69.861 284.889 69.9777 284.609 70.211C284.329 70.4443 284.189 70.6987 284.189 70.974C284.189 71.506 284.646 71.8957 285.561 72.143L286.751 72.514C287.348 72.682 287.803 72.906 288.116 73.186C288.433 73.466 288.592 73.8253 288.592 74.264C288.592 74.586 288.487 74.8917 288.277 75.181C288.072 75.4703 287.775 75.706 287.388 75.888C287.001 76.0653 286.534 76.154 285.988 76.154ZM295.549 69.35H296.361V76H295.549V69.35ZM290.761 69.35H291.573V73.522C291.573 74.138 291.722 74.6093 292.021 74.936C292.324 75.258 292.76 75.419 293.33 75.419C293.796 75.419 294.195 75.293 294.527 75.041C294.858 74.789 295.11 74.4507 295.283 74.026C295.46 73.6013 295.549 73.1323 295.549 72.619H295.934C295.934 73.3283 295.824 73.9467 295.605 74.474C295.385 75.0013 295.075 75.4097 294.674 75.699C294.272 75.9837 293.796 76.126 293.246 76.126C292.732 76.126 292.289 76.0303 291.916 75.839C291.547 75.6477 291.262 75.363 291.062 74.985C290.861 74.6023 290.761 74.1287 290.761 73.564V69.35ZM303.364 76L303.259 74.621V71.681C303.259 71.0137 303.114 70.54 302.825 70.26C302.535 69.98 302.122 69.84 301.586 69.84C301.287 69.84 301.009 69.8843 300.753 69.973C300.496 70.057 300.291 70.1947 300.137 70.386C299.983 70.5727 299.906 70.82 299.906 71.128H298.982C298.982 70.6567 299.098 70.281 299.332 70.001C299.565 69.7163 299.878 69.5133 300.27 69.392C300.666 69.266 301.105 69.203 301.586 69.203C302.062 69.203 302.486 69.287 302.86 69.455C303.233 69.6183 303.527 69.8843 303.742 70.253C303.961 70.617 304.071 71.0977 304.071 71.695V76H303.364ZM301.054 76.154C300.522 76.154 300.083 76.0583 299.738 75.867C299.392 75.671 299.136 75.4213 298.968 75.118C298.8 74.8147 298.716 74.502 298.716 74.18C298.716 73.7133 298.828 73.34 299.052 73.06C299.28 72.78 299.584 72.577 299.962 72.451C300.344 72.325 300.762 72.262 301.215 72.262C301.555 72.262 301.908 72.3017 302.272 72.381C302.64 72.4557 302.993 72.5607 303.329 72.696V73.242C303.039 73.116 302.706 73.0157 302.328 72.941C301.95 72.8663 301.607 72.829 301.299 72.829C300.823 72.829 300.417 72.9317 300.081 73.137C299.745 73.3423 299.577 73.69 299.577 74.18C299.577 74.5487 299.7 74.8613 299.948 75.118C300.2 75.3747 300.603 75.503 301.159 75.503C301.537 75.503 301.884 75.412 302.202 75.23C302.519 75.048 302.773 74.8217 302.965 74.551C303.161 74.2803 303.259 74.0073 303.259 73.732H303.462C303.462 74.1567 303.361 74.5533 303.161 74.922C302.965 75.2907 302.685 75.5893 302.321 75.818C301.961 76.042 301.539 76.154 301.054 76.154ZM306.776 76V66.48H307.588V76H306.776ZM320.021 76V72.087C320.021 71.3823 319.853 70.8433 319.517 70.47C319.181 70.0967 318.721 69.91 318.138 69.91C317.475 69.91 316.973 70.162 316.633 70.666C316.292 71.1653 316.122 71.8327 316.122 72.668H315.709C315.709 72.122 315.765 71.6343 315.877 71.205C315.989 70.771 316.154 70.407 316.374 70.113C316.593 69.8143 316.864 69.588 317.186 69.434C317.512 69.28 317.888 69.203 318.313 69.203C318.826 69.203 319.269 69.3173 319.643 69.546C320.021 69.7747 320.312 70.106 320.518 70.54C320.723 70.9693 320.826 71.485 320.826 72.087V76H320.021ZM310.522 76V69.357H311.208L311.306 70.792C311.506 70.2927 311.8 69.903 312.188 69.623C312.575 69.343 313.049 69.203 313.609 69.203C314.122 69.203 314.565 69.3173 314.939 69.546C315.317 69.7747 315.608 70.106 315.814 70.54C316.019 70.9693 316.122 71.485 316.122 72.087V76H315.331V72.087C315.331 71.3823 315.16 70.8433 314.82 70.47C314.484 70.0967 314.019 69.91 313.427 69.91C312.993 69.91 312.617 70.029 312.3 70.267C311.987 70.505 311.747 70.8387 311.579 71.268C311.415 71.6973 311.334 72.199 311.334 72.773V76H310.522ZM325.743 76.154C325.164 76.154 324.653 76.007 324.21 75.713C323.771 75.4143 323.426 75.006 323.174 74.488C322.922 73.9653 322.796 73.3703 322.796 72.703C322.796 71.975 322.919 71.3497 323.167 70.827C323.419 70.3043 323.764 69.903 324.203 69.623C324.646 69.343 325.159 69.203 325.743 69.203C326.233 69.203 326.648 69.3033 326.989 69.504C327.334 69.7 327.612 69.9683 327.822 70.309C328.032 70.6497 328.179 71.0347 328.263 71.464C328.351 71.8933 328.386 72.3367 328.368 72.794H323.461V72.234H327.871L327.549 72.444C327.563 72.1407 327.544 71.8397 327.493 71.541C327.446 71.2377 327.355 70.96 327.22 70.708C327.089 70.456 326.905 70.253 326.667 70.099C326.429 69.945 326.123 69.868 325.75 69.868C325.274 69.868 324.877 69.9917 324.56 70.239C324.242 70.4817 324.004 70.799 323.846 71.191C323.692 71.5783 323.615 71.9937 323.615 72.437V72.78C323.615 73.2887 323.692 73.746 323.846 74.152C324.004 74.558 324.24 74.88 324.553 75.118C324.87 75.356 325.267 75.475 325.743 75.475C326.233 75.475 326.632 75.356 326.94 75.118C327.252 74.8753 327.439 74.5207 327.5 74.054H328.368C328.298 74.4973 328.141 74.8753 327.899 75.188C327.661 75.5007 327.357 75.741 326.989 75.909C326.62 76.0723 326.205 76.154 325.743 76.154ZM335.401 76V72.087C335.401 71.3823 335.231 70.8433 334.89 70.47C334.554 70.0967 334.09 69.91 333.497 69.91C333.063 69.91 332.687 70.029 332.37 70.267C332.057 70.505 331.817 70.8387 331.649 71.268C331.486 71.6973 331.404 72.199 331.404 72.773H331.047C331.047 72.045 331.145 71.415 331.341 70.883C331.542 70.3463 331.836 69.9333 332.223 69.644C332.615 69.35 333.1 69.203 333.679 69.203C334.192 69.203 334.636 69.3173 335.009 69.546C335.387 69.7747 335.679 70.106 335.884 70.54C336.089 70.9693 336.192 71.485 336.192 72.087V76H335.401ZM330.592 76V69.357H331.278L331.404 70.995V76H330.592ZM340.844 76.154C340.498 76.154 340.19 76.0863 339.92 75.951C339.654 75.8157 339.444 75.615 339.29 75.349C339.14 75.083 339.066 74.754 339.066 74.362V67.467H339.857V74.348C339.857 75.104 340.207 75.482 340.907 75.482C341.112 75.482 341.308 75.4587 341.495 75.412C341.681 75.3653 341.891 75.3 342.125 75.216L342.237 75.811C342.008 75.9137 341.779 75.9953 341.551 76.056C341.322 76.1213 341.086 76.154 340.844 76.154ZM337.925 69.945V69.357H342.104V69.945H337.925ZM346.251 76.154C345.672 76.154 345.161 76.007 344.718 75.713C344.279 75.4143 343.934 75.006 343.682 74.488C343.43 73.9653 343.304 73.3703 343.304 72.703C343.304 71.975 343.427 71.3497 343.675 70.827C343.927 70.3043 344.272 69.903 344.711 69.623C345.154 69.343 345.667 69.203 346.251 69.203C346.741 69.203 347.156 69.3033 347.497 69.504C347.842 69.7 348.12 69.9683 348.33 70.309C348.54 70.6497 348.687 71.0347 348.771 71.464C348.859 71.8933 348.894 72.3367 348.876 72.794H343.969V72.234H348.379L348.057 72.444C348.071 72.1407 348.052 71.8397 348.001 71.541C347.954 71.2377 347.863 70.96 347.728 70.708C347.597 70.456 347.413 70.253 347.175 70.099C346.937 69.945 346.631 69.868 346.258 69.868C345.782 69.868 345.385 69.9917 345.068 70.239C344.75 70.4817 344.512 70.799 344.354 71.191C344.2 71.5783 344.123 71.9937 344.123 72.437V72.78C344.123 73.2887 344.2 73.746 344.354 74.152C344.512 74.558 344.748 74.88 345.061 75.118C345.378 75.356 345.775 75.475 346.251 75.475C346.741 75.475 347.14 75.356 347.448 75.118C347.76 74.8753 347.947 74.5207 348.008 74.054H348.876C348.806 74.4973 348.649 74.8753 348.407 75.188C348.169 75.5007 347.865 75.741 347.497 75.909C347.128 76.0723 346.713 76.154 346.251 76.154ZM358.366 76L358.261 74.621V71.681C358.261 71.0137 358.116 70.54 357.827 70.26C357.537 69.98 357.124 69.84 356.588 69.84C356.289 69.84 356.011 69.8843 355.755 69.973C355.498 70.057 355.293 70.1947 355.139 70.386C354.985 70.5727 354.908 70.82 354.908 71.128H353.984C353.984 70.6567 354.1 70.281 354.334 70.001C354.567 69.7163 354.88 69.5133 355.272 69.392C355.668 69.266 356.107 69.203 356.588 69.203C357.064 69.203 357.488 69.287 357.862 69.455C358.235 69.6183 358.529 69.8843 358.744 70.253C358.963 70.617 359.073 71.0977 359.073 71.695V76H358.366ZM356.056 76.154C355.524 76.154 355.085 76.0583 354.74 75.867C354.394 75.671 354.138 75.4213 353.97 75.118C353.802 74.8147 353.718 74.502 353.718 74.18C353.718 73.7133 353.83 73.34 354.054 73.06C354.282 72.78 354.586 72.577 354.964 72.451C355.346 72.325 355.764 72.262 356.217 72.262C356.557 72.262 356.91 72.3017 357.274 72.381C357.642 72.4557 357.995 72.5607 358.331 72.696V73.242C358.041 73.116 357.708 73.0157 357.33 72.941C356.952 72.8663 356.609 72.829 356.301 72.829C355.825 72.829 355.419 72.9317 355.083 73.137C354.747 73.3423 354.579 73.69 354.579 74.18C354.579 74.5487 354.702 74.8613 354.95 75.118C355.202 75.3747 355.605 75.503 356.161 75.503C356.539 75.503 356.886 75.412 357.204 75.23C357.521 75.048 357.775 74.8217 357.967 74.551C358.163 74.2803 358.261 74.0073 358.261 73.732H358.464C358.464 74.1567 358.363 74.5533 358.163 74.922C357.967 75.2907 357.687 75.5893 357.323 75.818C356.963 76.042 356.541 76.154 356.056 76.154ZM363.717 76.154C363.371 76.154 363.063 76.0863 362.793 75.951C362.527 75.8157 362.317 75.615 362.163 75.349C362.013 75.083 361.939 74.754 361.939 74.362V67.467H362.73V74.348C362.73 75.104 363.08 75.482 363.78 75.482C363.985 75.482 364.181 75.4587 364.368 75.412C364.554 75.3653 364.764 75.3 364.998 75.216L365.11 75.811C364.881 75.9137 364.652 75.9953 364.424 76.056C364.195 76.1213 363.959 76.154 363.717 76.154ZM360.798 69.945V69.357H364.977V69.945H360.798ZM366.905 76V69.35H367.717V76H366.905ZM367.416 72.955C367.416 72.1243 367.488 71.4337 367.633 70.883C367.777 70.3323 368.001 69.9193 368.305 69.644C368.608 69.3687 368.995 69.231 369.467 69.231C369.63 69.231 369.779 69.2427 369.915 69.266C370.055 69.2893 370.195 69.3267 370.335 69.378L370.244 70.169C370.108 70.1177 369.959 70.0757 369.796 70.043C369.632 70.0057 369.49 69.987 369.369 69.987C368.953 69.987 368.624 70.113 368.382 70.365C368.144 70.617 367.973 70.967 367.871 71.415C367.768 71.8583 367.717 72.3717 367.717 72.955H367.416ZM375.797 76L375.692 74.621V71.681C375.692 71.0137 375.548 70.54 375.258 70.26C374.969 69.98 374.556 69.84 374.019 69.84C373.721 69.84 373.443 69.8843 373.186 69.973C372.93 70.057 372.724 70.1947 372.57 70.386C372.416 70.5727 372.339 70.82 372.339 71.128H371.415C371.415 70.6567 371.532 70.281 371.765 70.001C371.999 69.7163 372.311 69.5133 372.703 69.392C373.1 69.266 373.539 69.203 374.019 69.203C374.495 69.203 374.92 69.287 375.293 69.455C375.667 69.6183 375.961 69.8843 376.175 70.253C376.395 70.617 376.504 71.0977 376.504 71.695V76H375.797ZM373.487 76.154C372.955 76.154 372.517 76.0583 372.171 75.867C371.826 75.671 371.569 75.4213 371.401 75.118C371.233 74.8147 371.149 74.502 371.149 74.18C371.149 73.7133 371.261 73.34 371.485 73.06C371.714 72.78 372.017 72.577 372.395 72.451C372.778 72.325 373.196 72.262 373.648 72.262C373.989 72.262 374.341 72.3017 374.705 72.381C375.074 72.4557 375.426 72.5607 375.762 72.696V73.242C375.473 73.116 375.139 73.0157 374.761 72.941C374.383 72.8663 374.04 72.829 373.732 72.829C373.256 72.829 372.85 72.9317 372.514 73.137C372.178 73.3423 372.01 73.69 372.01 74.18C372.01 74.5487 372.134 74.8613 372.381 75.118C372.633 75.3747 373.037 75.503 373.592 75.503C373.97 75.503 374.318 75.412 374.635 75.23C374.953 75.048 375.207 74.8217 375.398 74.551C375.594 74.2803 375.692 74.0073 375.692 73.732H375.895C375.895 74.1567 375.795 74.5533 375.594 74.922C375.398 75.2907 375.118 75.5893 374.754 75.818C374.395 76.042 373.973 76.154 373.487 76.154ZM381.449 76.154C380.931 76.154 380.446 76.0117 379.993 75.727C379.541 75.4423 379.174 75.0387 378.894 74.516C378.619 73.9933 378.481 73.375 378.481 72.661C378.481 71.9377 378.619 71.3193 378.894 70.806C379.174 70.288 379.541 69.8913 379.993 69.616C380.446 69.3407 380.931 69.203 381.449 69.203C381.795 69.203 382.107 69.2543 382.387 69.357C382.672 69.455 382.922 69.595 383.136 69.777C383.356 69.9543 383.542 70.162 383.696 70.4C383.85 70.6333 383.969 70.8853 384.053 71.156L383.206 71.282C383.071 70.8527 382.849 70.5167 382.541 70.274C382.233 70.0313 381.865 69.91 381.435 69.91C381.071 69.91 380.728 70.015 380.406 70.225C380.089 70.435 379.83 70.7453 379.629 71.156C379.429 71.562 379.328 72.0637 379.328 72.661C379.328 73.2023 379.417 73.683 379.594 74.103C379.776 74.5183 380.026 74.845 380.343 75.083C380.661 75.3163 381.025 75.433 381.435 75.433C382 75.433 382.436 75.293 382.744 75.013C383.052 74.733 383.206 74.3387 383.206 73.83H384.053C384.053 74.2873 383.944 74.691 383.724 75.041C383.505 75.391 383.199 75.664 382.807 75.86C382.415 76.056 381.963 76.154 381.449 76.154ZM388.271 76.154C387.926 76.154 387.618 76.0863 387.347 75.951C387.081 75.8157 386.871 75.615 386.717 75.349C386.568 75.083 386.493 74.754 386.493 74.362V67.467H387.284V74.348C387.284 75.104 387.634 75.482 388.334 75.482C388.54 75.482 388.736 75.4587 388.922 75.412C389.109 75.3653 389.319 75.3 389.552 75.216L389.664 75.811C389.436 75.9137 389.207 75.9953 388.978 76.056C388.75 76.1213 388.514 76.154 388.271 76.154ZM385.352 69.945V69.357H389.531V69.945H385.352ZM391.9 67.607C391.728 67.607 391.588 67.5533 391.48 67.446C391.373 67.3387 391.319 67.2033 391.319 67.04C391.319 66.8813 391.373 66.7553 391.48 66.662C391.588 66.564 391.728 66.515 391.9 66.515C392.082 66.515 392.225 66.564 392.327 66.662C392.43 66.7553 392.481 66.8813 392.481 67.04C392.481 67.2033 392.43 67.3387 392.327 67.446C392.225 67.5533 392.082 67.607 391.9 67.607ZM391.494 76V69.35H392.306V76H391.494ZM394.248 69.357H395.165L397.503 75.3H397.335L399.673 69.357H400.59L397.846 76H396.992L394.248 69.357ZM406.395 76L406.29 74.621V71.681C406.29 71.0137 406.145 70.54 405.856 70.26C405.567 69.98 405.154 69.84 404.617 69.84C404.318 69.84 404.041 69.8843 403.784 69.973C403.527 70.057 403.322 70.1947 403.168 70.386C403.014 70.5727 402.937 70.82 402.937 71.128H402.013C402.013 70.6567 402.13 70.281 402.363 70.001C402.596 69.7163 402.909 69.5133 403.301 69.392C403.698 69.266 404.136 69.203 404.617 69.203C405.093 69.203 405.518 69.287 405.891 69.455C406.264 69.6183 406.558 69.8843 406.773 70.253C406.992 70.617 407.102 71.0977 407.102 71.695V76H406.395ZM404.085 76.154C403.553 76.154 403.114 76.0583 402.769 75.867C402.424 75.671 402.167 75.4213 401.999 75.118C401.831 74.8147 401.747 74.502 401.747 74.18C401.747 73.7133 401.859 73.34 402.083 73.06C402.312 72.78 402.615 72.577 402.993 72.451C403.376 72.325 403.793 72.262 404.246 72.262C404.587 72.262 404.939 72.3017 405.303 72.381C405.672 72.4557 406.024 72.5607 406.36 72.696V73.242C406.071 73.116 405.737 73.0157 405.359 72.941C404.981 72.8663 404.638 72.829 404.33 72.829C403.854 72.829 403.448 72.9317 403.112 73.137C402.776 73.3423 402.608 73.69 402.608 74.18C402.608 74.5487 402.732 74.8613 402.979 75.118C403.231 75.3747 403.635 75.503 404.19 75.503C404.568 75.503 404.916 75.412 405.233 75.23C405.55 75.048 405.805 74.8217 405.996 74.551C406.192 74.2803 406.29 74.0073 406.29 73.732H406.493C406.493 74.1567 406.393 74.5533 406.192 74.922C405.996 75.2907 405.716 75.5893 405.352 75.818C404.993 76.042 404.57 76.154 404.085 76.154ZM408.799 75.503C408.799 75.335 408.86 75.1857 408.981 75.055C409.107 74.9243 409.261 74.859 409.443 74.859C409.63 74.859 409.788 74.9243 409.919 75.055C410.05 75.1857 410.115 75.335 410.115 75.503C410.115 75.6757 410.05 75.8227 409.919 75.944C409.788 76.0653 409.63 76.126 409.443 76.126C409.261 76.126 409.107 76.0653 408.981 75.944C408.86 75.8227 408.799 75.6757 408.799 75.503Z" fill="#333333"/>
<path id="Globetrotter" d="M136.287 51.768C133.583 51.768 131.159 51.048 129.015 49.608C126.887 48.168 125.199 46.184 123.951 43.656C122.719 41.112 122.103 38.192 122.103 34.896C122.103 32.416 122.463 30.152 123.183 28.104C123.919 26.04 124.959 24.264 126.303 22.776C127.663 21.272 129.279 20.112 131.151 19.296C133.039 18.48 135.135 18.072 137.439 18.072C140.927 18.072 143.767 18.864 145.959 20.448C148.151 22.016 149.711 24.48 150.639 27.84L142.479 29.304C141.935 27.976 141.215 26.928 140.319 26.16C139.423 25.392 138.319 25.008 137.007 25.008C135.759 25.008 134.631 25.408 133.623 26.208C132.631 27.008 131.847 28.144 131.271 29.616C130.695 31.088 130.407 32.848 130.407 34.896C130.407 36.928 130.695 38.688 131.271 40.176C131.847 41.648 132.631 42.784 133.623 43.584C134.631 44.384 135.759 44.784 137.007 44.784C138.239 44.784 139.335 44.528 140.295 44.016C141.271 43.488 142.031 42.784 142.575 41.904C143.135 41.008 143.415 40.024 143.415 38.952H144.759C144.759 41.576 144.447 43.848 143.823 45.768C143.199 47.688 142.263 49.168 141.015 50.208C139.767 51.248 138.191 51.768 136.287 51.768ZM144.375 51L143.415 44.376V38.664L137.007 38.616V33.912H150.711V51H144.375ZM158.267 51V17.88H165.947V51H158.267ZM184.191 51.768C181.999 51.768 179.983 51.32 178.143 50.424C176.319 49.512 174.855 48.136 173.751 46.296C172.663 44.44 172.119 42.088 172.119 39.24C172.119 36.296 172.663 33.896 173.751 32.04C174.855 30.184 176.319 28.816 178.143 27.936C179.983 27.04 181.999 26.592 184.191 26.592C186.335 26.592 188.311 27.04 190.119 27.936C191.927 28.816 193.375 30.184 194.463 32.04C195.567 33.896 196.119 36.296 196.119 39.24C196.119 42.088 195.567 44.44 194.463 46.296C193.375 48.136 191.927 49.512 190.119 50.424C188.311 51.32 186.335 51.768 184.191 51.768ZM183.903 45.072C184.639 45.072 185.351 44.88 186.039 44.496C186.743 44.112 187.327 43.496 187.791 42.648C188.255 41.784 188.487 40.648 188.487 39.24C188.487 37.048 188.095 35.504 187.311 34.608C186.527 33.712 185.583 33.264 184.479 33.264C183.743 33.264 183.007 33.456 182.271 33.84C181.551 34.224 180.951 34.856 180.471 35.736C180.007 36.6 179.775 37.768 179.775 39.24C179.775 41.368 180.183 42.872 180.999 43.752C181.831 44.632 182.799 45.072 183.903 45.072ZM215.651 51.768C214.291 51.768 213.019 51.36 211.835 50.544C210.667 49.712 209.723 48.44 209.003 46.728C208.299 45 207.947 42.8 207.947 40.128H209.963C209.963 40.96 210.179 41.728 210.611 42.432C211.059 43.136 211.619 43.704 212.291 44.136C212.979 44.552 213.675 44.76 214.379 44.76C215.355 44.76 216.187 44.512 216.875 44.016C217.579 43.52 218.123 42.84 218.507 41.976C218.891 41.112 219.083 40.136 219.083 39.048C219.083 38.008 218.891 37.072 218.507 36.24C218.139 35.408 217.603 34.752 216.899 34.272C216.195 33.792 215.339 33.552 214.331 33.552C213.547 33.552 212.819 33.736 212.147 34.104C211.491 34.472 210.963 34.992 210.563 35.664C210.163 36.32 209.963 37.096 209.963 37.992H207.947C207.947 35.448 208.267 33.336 208.907 31.656C209.563 29.96 210.507 28.696 211.739 27.864C212.987 27.016 214.499 26.592 216.275 26.592C218.259 26.592 220.035 27.112 221.603 28.152C223.187 29.192 224.443 30.648 225.371 32.52C226.299 34.376 226.763 36.552 226.763 39.048C226.763 41.576 226.267 43.8 225.275 45.72C224.299 47.624 222.971 49.112 221.291 50.184C219.627 51.24 217.747 51.768 215.651 51.768ZM202.283 51V17.88H209.963V44.832L207.083 51H202.283ZM242.301 51.768C240.317 51.768 238.453 51.256 236.709 50.232C234.965 49.208 233.549 47.744 232.461 45.84C231.389 43.936 230.853 41.68 230.853 39.072C230.853 36.464 231.389 34.232 232.461 32.376C233.533 30.504 234.941 29.072 236.685 28.08C238.429 27.088 240.301 26.592 242.301 26.592C244.285 26.592 246.013 26.992 247.485 27.792C248.957 28.576 250.141 29.64 251.037 30.984C251.949 32.328 252.541 33.848 252.813 35.544C253.101 37.224 253.045 38.96 252.645 40.752H236.925V36.864H247.029L245.925 37.584C245.973 37.024 245.949 36.456 245.853 35.88C245.773 35.304 245.605 34.776 245.349 34.296C245.093 33.8 244.725 33.408 244.245 33.12C243.781 32.816 243.181 32.664 242.445 32.664C241.629 32.664 240.917 32.864 240.309 33.264C239.717 33.648 239.253 34.216 238.917 34.968C238.597 35.704 238.437 36.608 238.437 37.68V40.704C238.437 41.712 238.581 42.584 238.869 43.32C239.157 44.056 239.581 44.632 240.141 45.048C240.717 45.448 241.437 45.648 242.301 45.648C243.005 45.648 243.621 45.504 244.149 45.216C244.677 44.928 245.045 44.472 245.253 43.848H252.885C252.645 45.32 252.053 46.656 251.109 47.856C250.181 49.056 248.965 50.008 247.461 50.712C245.973 51.416 244.253 51.768 242.301 51.768ZM267.878 51.768C266.374 51.768 264.966 51.496 263.654 50.952C262.358 50.408 261.31 49.56 260.51 48.408C259.726 47.24 259.334 45.744 259.334 43.92V21.384H267.062V43.632C267.062 45.072 267.774 45.792 269.198 45.792C269.646 45.792 270.118 45.744 270.614 45.648C271.126 45.536 271.718 45.36 272.39 45.12L273.518 50.472C272.542 50.824 271.606 51.128 270.71 51.384C269.83 51.64 268.886 51.768 267.878 51.768ZM256.526 32.328V27.36H272.438V32.328H256.526ZM279.017 51V27.216H286.697V51H279.017ZM285.065 40.92C285.065 37.704 285.473 35.064 286.289 33C287.105 30.936 288.137 29.408 289.385 28.416C290.633 27.424 291.905 26.928 293.201 26.928C293.457 26.928 293.713 26.944 293.969 26.976C294.225 26.992 294.465 27.024 294.689 27.072L294.761 34.8C294.361 34.752 293.953 34.72 293.537 34.704C293.121 34.672 292.729 34.656 292.361 34.656C291.241 34.656 290.249 34.864 289.385 35.28C288.537 35.696 287.873 36.36 287.393 37.272C286.929 38.184 286.697 39.4 286.697 40.92H285.065ZM309.488 51.768C307.296 51.768 305.28 51.32 303.44 50.424C301.616 49.512 300.152 48.136 299.048 46.296C297.96 44.44 297.416 42.088 297.416 39.24C297.416 36.296 297.96 33.896 299.048 32.04C300.152 30.184 301.616 28.816 303.44 27.936C305.28 27.04 307.296 26.592 309.488 26.592C311.632 26.592 313.608 27.04 315.416 27.936C317.224 28.816 318.672 30.184 319.76 32.04C320.864 33.896 321.416 36.296 321.416 39.24C321.416 42.088 320.864 44.44 319.76 46.296C318.672 48.136 317.224 49.512 315.416 50.424C313.608 51.32 311.632 51.768 309.488 51.768ZM309.2 45.072C309.936 45.072 310.648 44.88 311.336 44.496C312.04 44.112 312.624 43.496 313.088 42.648C313.552 41.784 313.784 40.648 313.784 39.24C313.784 37.048 313.392 35.504 312.608 34.608C311.824 33.712 310.88 33.264 309.776 33.264C309.04 33.264 308.304 33.456 307.568 33.84C306.848 34.224 306.248 34.856 305.768 35.736C305.304 36.6 305.072 37.768 305.072 39.24C305.072 41.368 305.48 42.872 306.296 43.752C307.128 44.632 308.096 45.072 309.2 45.072ZM336.315 51.768C334.811 51.768 333.403 51.496 332.091 50.952C330.795 50.408 329.747 49.56 328.947 48.408C328.163 47.24 327.771 45.744 327.771 43.92V21.384H335.499V43.632C335.499 45.072 336.211 45.792 337.635 45.792C338.083 45.792 338.555 45.744 339.051 45.648C339.563 45.536 340.155 45.36 340.827 45.12L341.955 50.472C340.979 50.824 340.043 51.128 339.147 51.384C338.267 51.64 337.323 51.768 336.315 51.768ZM324.963 32.328V27.36H340.875V32.328H324.963ZM356.19 51.768C354.686 51.768 353.278 51.496 351.966 50.952C350.67 50.408 349.622 49.56 348.822 48.408C348.038 47.24 347.646 45.744 347.646 43.92V21.384H355.374V43.632C355.374 45.072 356.086 45.792 357.51 45.792C357.958 45.792 358.43 45.744 358.926 45.648C359.438 45.536 360.03 45.36 360.702 45.12L361.83 50.472C360.854 50.824 359.918 51.128 359.022 51.384C358.142 51.64 357.198 51.768 356.19 51.768ZM344.838 32.328V27.36H360.75V32.328H344.838ZM376.785 51.768C374.801 51.768 372.937 51.256 371.193 50.232C369.449 49.208 368.033 47.744 366.945 45.84C365.873 43.936 365.337 41.68 365.337 39.072C365.337 36.464 365.873 34.232 366.945 32.376C368.017 30.504 369.425 29.072 371.169 28.08C372.913 27.088 374.785 26.592 376.785 26.592C378.769 26.592 380.497 26.992 381.969 27.792C383.441 28.576 384.625 29.64 385.521 30.984C386.433 32.328 387.025 33.848 387.297 35.544C387.585 37.224 387.529 38.96 387.129 40.752H371.409V36.864H381.513L380.409 37.584C380.457 37.024 380.433 36.456 380.337 35.88C380.257 35.304 380.089 34.776 379.833 34.296C379.577 33.8 379.209 33.408 378.729 33.12C378.265 32.816 377.665 32.664 376.929 32.664C376.113 32.664 375.401 32.864 374.793 33.264C374.201 33.648 373.737 34.216 373.401 34.968C373.081 35.704 372.921 36.608 372.921 37.68V40.704C372.921 41.712 373.065 42.584 373.353 43.32C373.641 44.056 374.065 44.632 374.625 45.048C375.201 45.448 375.921 45.648 376.785 45.648C377.489 45.648 378.105 45.504 378.633 45.216C379.161 44.928 379.529 44.472 379.737 43.848H387.369C387.129 45.32 386.537 46.656 385.593 47.856C384.665 49.056 383.449 50.008 381.945 50.712C380.457 51.416 378.737 51.768 376.785 51.768ZM393.626 51V27.216H401.306V51H393.626ZM399.674 40.92C399.674 37.704 400.082 35.064 400.898 33C401.714 30.936 402.746 29.408 403.994 28.416C405.242 27.424 406.514 26.928 407.81 26.928C408.066 26.928 408.322 26.944 408.578 26.976C408.834 26.992 409.074 27.024 409.298 27.072L409.37 34.8C408.97 34.752 408.562 34.72 408.146 34.704C407.73 34.672 407.338 34.656 406.97 34.656C405.85 34.656 404.858 34.864 403.994 35.28C403.146 35.696 402.482 36.36 402.002 37.272C401.538 38.184 401.306 39.4 401.306 40.92H399.674Z" fill="#333333"/>
<g id="icon 1" clip-path="url(#clip0_1_12)">
<path id="Vector" d="M50 100C57.908 99.9414 65.6893 98.0079 72.705 94.3582C79.7207 90.7085 85.7706 85.4467 90.3579 79.0049C94.9452 72.5631 97.9391 65.1251 99.0938 57.3016C100.248 49.4781 99.5309 41.4923 97 34C76 51 56 85 50 100ZM76 19C77 19 32 28 0 49V50C0.236258 57.2652 1.9369 64.4079 5 71C33 45 55 34 92 22C86.9544 14.1783 79.8256 7.92025 71.4161 3.93039C63.0067 -0.0594721 53.6505 -1.62274 44.4007 -0.583448C35.151 0.455848 26.375 4.05645 19.0606 9.81303C11.7463 15.5696 6.18404 23.2536 3 32C32 20 64 20 76 19Z" fill="#F15A24"/>
<path id="Vector_2" d="M96 31C95.1354 28.9351 94.1332 26.9306 93 25C50 38 22 65 9 79C14.969 87.3151 23.3462 93.598 33 97C41 82 63 53 96 31Z" fill="#619A3F"/>
</g>
</g>
<defs>
<clipPath id="clip0_1_12">
<rect width="100" height="100" fill="white"/>
</clipPath>
</defs>
</svg>
